{
  "accessors": [
    {
      "bufferView": 2,
      "componentType": 5126,
      "count": 72,
      "max": [
        1.5980963706970215,
        17.401294708251953,
        12.613710403442383
      ],
      "min": [
        -1.7918956279754639,
        15.401294708251953,
        -12.613710403442383
      ],
      "type": "VEC3"
    },
    {
      "bufferView": 2,
      "byteOffset": 864,
      "componentType": 5126,
      "count": 72,
      "max": [
        1.0,
        1.0,
        1.0
      ],
      "min": [
        -1.0,
        -1.0,
        -1.0
      ],
      "type": "VEC3"
    },
    {
      "bufferView": 1,
      "componentType": 5126,
      "count": 72,
      "max": [
        0.875,
        1.0
      ],
      "min": [
        0.125,
        0.0
      ],
      "type": "VEC2"
    },
    {
      "bufferView": 1,
      "byteOffset": 576,
      "componentType": 5126,
      "count": 72,
      "max": [
        0.875,
        1.0
      ],
      "min": [
        0.125,
        0.0
      ],
      "type": "VEC2"
    },
    {
      "bufferView": 0,
      "componentType": 5125,
      "count": 108,
      "type": "SCALAR"
    },
    {
      "bufferView": 2,
      "byteOffset": 1728,
      "componentType": 5126,
      "count": 4812,
      "max": [
        0.91108638048172,
        1.434987187385559,
        1.0218104124069214
      ],
      "min": [
        -0.91108638048172,
        0.7569179534912109,
        -1.0218104124069214
      ],
      "type": "VEC3"
    },
    {
      "bufferView": 2,
      "byteOffset": 59472,
      "componentType": 5126,
      "count": 4812,
      "max": [
        1.0,
        1.0,
        1.0
      ],
      "min": [
        -1.0,
        -1.0,
        -1.0
      ],
      "type": "VEC3"
    },
    {
      "bufferView": 1,
      "byteOffset": 1152,
      "componentType": 5126,
      "count": 4812,
      "max": [
        1.0000669956207275,
        1.0000001192092896
      ],
      "min": [
        -6.691942689940333e-05,
        0.01000000536441803
      ],
      "type": "VEC2"
    },
    {
      "bufferView": 1,
      "byteOffset": 39648,
      "componentType": 5126,
      "count": 4812,
      "max": [
        1.0000669956207275,
        1.0000001192092896
      ],
      "min": [
        -6.691942689940333e-05,
        0.01000000536441803
      ],
      "type": "VEC2"
    },
    {
      "bufferView": 0,
      "byteOffset": 432,
      "componentType": 5125,
      "count": 15264,
      "type": "SCALAR"
    },
    {
      "bufferView": 2,
      "byteOffset": 117216,
      "componentType": 5126,
      "count": 12067,
      "max": [
        1.0000656843185425,
        0.9153963327407837,
        1.0000656843185425
      ],
      "min": [
        -1.0000656843185425,
        0.09049420058727264,
        -1.0000656843185425
      ],
      "type": "VEC3"
    },
    {
      "bufferView": 2,
      "byteOffset": 262020,
      "componentType": 5126,
      "count": 12067,
      "max": [
        0.9999969005584717,
        1.0,
        1.0
      ],
      "min": [
        -0.9999969005584717,
        -1.0,
        -1.0
      ],
      "type": "VEC3"
    },
    {
      "bufferView": 1,
      "byteOffset": 78144,
      "componentType": 5126,
      "count": 12067,
      "max": [
        0.875,
        1.0
      ],
      "min": [
        0.0,
        0.0
      ],
      "type": "VEC2"
    },
    {
      "bufferView": 0,
      "byteOffset": 61488,
      "componentType": 5125,
      "count": 53856,
      "type": "SCALAR"
    },
    {
      "bufferView": 2,
      "byteOffset": 406824,
      "componentType": 5126,
      "count": 2919,
      "max": [
        0.9207523465156555,
        0.7495594024658203,
        0.9144180417060852
      ],
      "min": [
        -0.9207523465156555,
        0.16494643688201904,
        -0.9144180417060852
      ],
      "type": "VEC3"
    },
    {
      "bufferView": 2,
      "byteOffset": 441852,
      "componentType": 5126,
      "count": 2919,
      "max": [
        1.0,
        1.0,
        1.0
      ],
      "min": [
        -1.0,
        -1.0,
        -1.0
      ],
      "type": "VEC3"
    },
    {
      "bufferView": 1,
      "byteOffset": 174680,
      "componentType": 5126,
      "count": 2919,
      "max": [
        0.8758786916732788,
        1.0
      ],
      "min": [
        0.125,
        0.0
      ],
      "type": "VEC2"
    },
    {
      "bufferView": 0,
      "byteOffset": 276912,
      "componentType": 5125,
      "count": 10560,
      "type": "SCALAR"
    },
    {
      "bufferView": 2,
      "byteOffset": 476880,
      "componentType": 5126,
      "count": 19710,
      "max": [
        1.000131368637085,
        1.3902804851531982,
        1.000131368637085
      ],
      "min": [
        -1.000131368637085,
        1.032686471939087,
        -1.000131368637085
      ],
      "type": "VEC3"
    },
    {
      "bufferView": 2,
      "byteOffset": 713400,
      "componentType": 5126,
      "count": 19710,
      "max": [
        1.0,
        1.0,
        1.0
      ],
      "min": [
        -1.0,
        -1.0,
        -1.0
      ],
      "type": "VEC3"
    },
    {
      "bufferView": 1,
      "byteOffset": 198032,
      "componentType": 5126,
      "count": 19710,
      "max": [
        0.875,
        1.0
      ],
      "min": [
        0.0,
        -0.019396666437387466
      ],
      "type": "VEC2"
    },
    {
      "bufferView": 0,
      "byteOffset": 319152,
      "componentType": 5125,
      "count": 89094,
      "type": "SCALAR"
    },
    {
      "bufferView": 2,
      "byteOffset": 949920,
      "componentType": 5126,
      "count": 5387,
      "max": [
        1.068121314048767,
        1.0329655408859253,
        0.9976478815078735
      ],
      "min": [
        -1.068121314048767,
        0.7191710472106934,
        -0.9976478815078735
      ],
      "type": "VEC3"
    },
    {
      "bufferView": 2,
      "byteOffset": 1014564,
      "componentType": 5126,
      "count": 5387,
      "max": [
        0.9999992847442627,
        1.0,
        0.9998641014099121
      ],
      "min": [
        -0.999994158744812,
        -1.0,
        -0.9998641014099121
      ],
      "type": "VEC3"
    },
    {
      "bufferView": 1,
      "byteOffset": 355712,
      "componentType": 5126,
      "count": 5387,
      "max": [
        0.5910885334014893,
        0.7353886961936951
      ],
      "min": [
        0.0,
        0.0
      ],
      "type": "VEC2"
    },
    {
      "bufferView": 0,
      "byteOffset": 675528,
      "componentType": 5125,
      "count": 21132,
      "type": "SCALAR"
    },
    {
      "bufferView": 2,
      "byteOffset": 1079208,
      "componentType": 5126,
      "count": 1929,
      "max": [
        1.0704734325408936,
        1.0304657220840454,
        1.0
      ],
      "min": [
        -1.0704734325408936,
        0.7191710472106934,
        -1.0
      ],
      "type": "VEC3"
    },
    {
      "bufferView": 2,
      "byteOffset": 1102356,
      "componentType": 5126,
      "count": 1929,
      "max": [
        1.0,
        1.0,
        1.0
      ],
      "min": [
        -1.0,
        -1.0,
        -1.0
      ],
      "type": "VEC3"
    },
    {
      "bufferView": 1,
      "byteOffset": 398808,
      "componentType": 5126,
      "count": 1929,
      "max": [
        0.8750000596046448,
        1.0
      ],
      "min": [
        0.40113043785095215,
        0.0
      ],
      "type": "VEC2"
    },
    {
      "bufferView": 1,
      "byteOffset": 414240,
      "componentType": 5126,
      "count": 1929,
      "max": [
        0.8750000596046448,
        1.0
      ],
      "min": [
        0.40113043785095215,
        0.0
      ],
      "type": "VEC2"
    },
    {
      "bufferView": 0,
      "byteOffset": 760056,
      "componentType": 5125,
      "count": 6408,
      "type": "SCALAR"
    },
    {
      "bufferView": 2,
      "byteOffset": 1125504,
      "componentType": 5126,
      "count": 9732,
      "max": [
        1.0000903606414795,
        0.09065016359090805,
        1.0000903606414795
      ],
      "min": [
        -1.0000903606414795,
        -0.206538587808609,
        -1.0000903606414795
      ],
      "type": "VEC3"
    },
    {
      "bufferView": 2,
      "byteOffset": 1242288,
      "componentType": 5126,
      "count": 9732,
      "max": [
        0.9999969005584717,
        1.0,
        1.0
      ],
      "min": [
        -0.9999969005584717,
        -1.0,
        -1.0
      ],
      "type": "VEC3"
    },
    {
      "bufferView": 1,
      "byteOffset": 429672,
      "componentType": 5126,
      "count": 9732,
      "max": [
        0.8623142838478088,
        1.0
      ],
      "min": [
        0.0,
        0.0
      ],
      "type": "VEC2"
    },
    {
      "bufferView": 0,
      "byteOffset": 785688,
      "componentType": 5125,
      "count": 48420,
      "type": "SCALAR"
    }
  ],
  "asset": {
    "extras": {
      "author": "DEDROX (https://sketchfab.com/Raghavprasanna)",
      "license": "CC-BY-4.0 (http://creativecommons.org/licenses/by/4.0/)",
      "source": "https://sketchfab.com/3d-models/gun-box-free-ac068b496f3248dd8e0bd11bab615de2",
      "title": "Gun box (free)"
    },
    "generator": "Sketchfab-12.67.0",
    "version": "2.0"
  },
  "bufferViews": [
    {
      "buffer": 0,
      "byteLength": 979368,
      "name": "floatBufferViews",
      "target": 34963
    },
    {
      "buffer": 0,
      "byteLength": 507528,
      "byteOffset": 979368,
      "byteStride": 8,
      "name": "floatBufferViews",
      "target": 34962
    },
    {
      "buffer": 0,
      "byteLength": 1359072,
      "byteOffset": 1486896,
      "byteStride": 12,
      "name": "floatBufferViews",
      "target": 34962
    }
  ],
  "buffers": [
    {
      "byteLength": 2845968,
      "uri": "box.bin"
    }
  ],
  "images": [
    {
      "uri": "textures/metalBreakup_metallicRoughness.png"
    }
  ],
  "materials": [
    {
      "doubleSided": true,
      "name": "metalBreakup",
      "pbrMetallicRoughness": {
        "metallicRoughnessTexture": {
          "index": 0
        },
        "roughnessFactor": 0.0
      }
    },
    {
      "doubleSided": true,
      "name": "metalDark",
      "pbrMetallicRoughness": {
        "baseColorFactor": [
          0.04042144494351347,
          0.04042144494351347,
          0.04042144494351347,
          1.0
        ],
        "roughnessFactor": 0.24444350958278552
      }
    },
    {
      "doubleSided": true,
      "name": "metalBright",
      "pbrMetallicRoughness": {
        "baseColorFactor": [
          0.3592178312889428,
          0.3592178312889428,
          0.3592178312889428,
          1.0
        ],
        "roughnessFactor": 0.0
      }
    }
  ],
  "meshes": [
    {
      "name": "Object_0",
      "primitives": [
        {
          "attributes": {
            "NORMAL": 1,
            "POSITION": 0,
            "TEXCOORD_0": 2,
            "TEXCOORD_1": 3
          },
          "indices": 4,
          "material": 0,
          "mode": 4
        }
      ]
    },
    {
      "name": "Object_1",
      "primitives": [
        {
          "attributes": {
            "NORMAL": 6,
            "POSITION": 5,
            "TEXCOORD_0": 7,
            "TEXCOORD_1": 8
          },
          "indices": 9,
          "material": 0,
          "mode": 4
        }
      ]
    },
    {
      "name": "Object_2",
      "primitives": [
        {
          "attributes": {
            "NORMAL": 11,
            "POSITION": 10,
            "TEXCOORD_0": 12
          },
          "indices": 13,
          "material": 1,
          "mode": 4
        }
      ]
    },
    {
      "name": "Object_3",
      "primitives": [
        {
          "attributes": {
            "NORMAL": 15,
            "POSITION": 14,
            "TEXCOORD_0": 16
          },
          "indices": 17,
          "material": 2,
          "mode": 4
        }
      ]
    },
    {
      "name": "Object_4",
      "primitives": [
        {
          "attributes": {
            "NORMAL": 19,
            "POSITION": 18,
            "TEXCOORD_0": 20
          },
          "indices": 21,
          "material": 1,
          "mode": 4
        }
      ]
    },
    {
      "name": "Object_5",
      "primitives": [
        {
          "attributes": {
            "NORMAL": 23,
            "POSITION": 22,
            "TEXCOORD_0": 24
          },
          "indices": 25,
          "material": 1,
          "mode": 4
        }
      ]
    },
    {
      "name": "Object_6",
      "primitives": [
        {
          "attributes": {
            "NORMAL": 27,
            "POSITION": 26,
            "TEXCOORD_0": 28,
            "TEXCOORD_1": 29
          },
          "indices": 30,
          "material": 0,
          "mode": 4
        }
      ]
    },
    {
      "name": "Object_7",
      "primitives": [
        {
          "attributes": {
            "NORMAL": 32,
            "POSITION": 31,
            "TEXCOORD_0": 33
          },
          "indices": 34,
          "material": 1,
          "mode": 4
        }
      ]
    }
  ],
  "nodes": [
    {
      "children": [
        1
      ],
      "matrix": [
        1.0,
        0.0,
        0.0,
        0.0,
        0.0,
        2.220446049250313e-16,
        -1.0,
        0.0,
        0.0,
        1.0,
        2.220446049250313e-16,
        0.0,
        0.0,
        0.0,
        0.0,
        1.0
      ],
      "name": "Sketchfab_model"
    },
    {
      "children": [
        2
      ],
      "name": "root"
    },
    {
      "children": [
        3,
        5,
        7,
        10,
        12,
        15
      ],
      "matrix": [
        1.0,
        0.0,
        0.0,
        0.0,
        0.0,
        2.220446049250313e-16,
        1.0,
        0.0,
        0.0,
        -1.0,
        2.220446049250313e-16,
        0.0,
        0.0,
        0.0,
        0.0,
        1.0
      ],
      "name": "GLTF_SceneRootNode"
    },
    {
      "children": [
        4
      ],
      "matrix": [
        0.3615768849849701,
        0.0,
        0.0,
        0.0,
        0.0,
        0.07834567129611969,
        0.0,
        0.0,
        0.0,
        0.0,
        0.07834567129611969,
        0.0,
        0.0,
        0.0,
        0.0,
        1.0
      ],
      "name": "Cube.008_0"
    },
    {
      "mesh": 0,
      "name": "Object_4"
    },
    {
      "children": [
        6
      ],
      "name": "Cylinder_1"
    },
    {
      "mesh": 1,
      "name": "Object_6"
    },
    {
      "children": [
        8,
        9
      ],
      "name": "Cube_3"
    },
    {
      "mesh": 2,
      "name": "Object_8"
    },
    {
      "mesh": 3,
      "name": "Object_9"
    },
    {
      "children": [
        11
      ],
      "name": "Cube.003_4"
    },
    {
      "mesh": 4,
      "name": "Object_11"
    },
    {
      "children": [
        13,
        14
      ],
      "name": "Cube.005_5"
    },
    {
      "mesh": 5,
      "name": "Object_13"
    },
    {
      "mesh": 6,
      "name": "Object_14"
    },
    {
      "children": [
        16
      ],
      "name": "Cube.010_6"
    },
    {
      "mesh": 7,
      "name": "Object_16"
    }
  ],
  "samplers": [
    {
      "magFilter": 9729,
      "minFilter": 9987,
      "wrapS": 10497,
      "wrapT": 10497
    }
  ],
  "scene": 0,
  "scenes": [
    {
      "name": "Sketchfab_Scene",
      "nodes": [
        0
      ]
    }
  ],
  "textures": [
    {
      "sampler": 0,
      "source": 0
    }
  ]
}
